<svg width="26" height="26" viewBox="0 0 26 26" fill="none" xmlns="http://www.w3.org/2000/svg">
<path d="M13 4.71683C13.5822 4.05676 14.3517 3.58963 15.2059 3.37761C16.0601 3.16559 16.9587 3.21872 17.782 3.52994C18.6053 3.84115 19.3143 4.3957 19.8147 5.11979C20.3151 5.84388 20.5831 6.70317 20.5831 7.58333C20.5831 8.4635 20.3151 9.32279 19.8147 10.0469C19.3143 10.771 18.6053 11.3255 17.782 11.6367C16.9587 11.948 16.0601 12.0011 15.2059 11.7891C14.3517 11.577 13.5822 11.1099 13 10.4498M16.25 22.75H3.25V21.6667C3.25 19.9428 3.93482 18.2895 5.15381 17.0705C6.37279 15.8515 8.02609 15.1667 9.75 15.1667C11.4739 15.1667 13.1272 15.8515 14.3462 17.0705C15.5652 18.2895 16.25 19.9428 16.25 21.6667V22.75ZM16.25 22.75H22.75V21.6667C22.7502 20.5256 22.4499 19.4046 21.8795 18.4163C21.3091 17.4281 20.4885 16.6074 19.5004 16.0368C18.5122 15.4662 17.3913 15.1658 16.2502 15.1657C15.1092 15.1657 13.9882 15.4661 13 16.0366M14.0833 7.58333C14.0833 8.73261 13.6268 9.83481 12.8141 10.6475C12.0015 11.4601 10.8993 11.9167 9.75 11.9167C8.60073 11.9167 7.49853 11.4601 6.68587 10.6475C5.87321 9.83481 5.41667 8.73261 5.41667 7.58333C5.41667 6.43406 5.87321 5.33186 6.68587 4.5192C7.49853 3.70655 8.60073 3.25 9.75 3.25C10.8993 3.25 12.0015 3.70655 12.8141 4.5192C13.6268 5.33186 14.0833 6.43406 14.0833 7.58333Z" stroke="#18181B" stroke-linecap="round" stroke-linejoin="round"/>
</svg>
